<svg xmlns="http://www.w3.org/2000/svg" enable-background="new 206 -206 512 512" viewBox="206 -206 512 512" id="rupees-price">
  <path d="M631,116.4V-60.7c0-5.5-4.5-9.3-10-9.3h-38.7c-5.5,0-10.3,3.8-10.3,9.3V99.1c-6.4,0.2-12.8,1-19,2.5
		V-8.5c0-5.5-4.7-9.5-10.2-9.5h-38.7c-5.5,0-10.1,3.9-10.1,9.5v149.3c-11.9,16.7-18.3,36.8-18.2,57.4c0,54.8,44.4,99.2,99.1,99.2
		c54.8,0,99.2-44.4,99.2-99.1C674.1,165.5,658,134.9,631,116.4z M592-50h19v155.8c-6.1-2.4-12.5-4.2-19-5.2V-50z M514,2h19v106.5
		c-6.7,3.1-13.1,6.9-19,11.4V2z M575,277.3c-43.7,0-79.1-35.5-79.1-79.1c0-32,19.3-60.9,48.9-73.1c1.2-0.2,2.3-0.7,3.3-1.3
		c8.6-3.2,17.8-4.8,27-4.8c2.1,0,4.1,0.1,6.2,0.3l0.1,0c12,0.9,23.7,4.6,34,10.8c37.6,22.3,50,70.8,27.7,108.4
		C628.8,262.6,602.9,277.3,575,277.3z"></path>
  <path d="M614.7 153c0-5.5-4.5-10-10-10h-59.5c-5.5 0-10 4.5-10 10s4.5 10 10 10h17c4.5 0 8.8 1.8 11.9 5h-29c-5.5 0-10 4.5-10 10s4.5 10 10 10h28.9c-.3 1-.6.9-.9 1.2-2.9 3-6.9 4.7-11 4.8h-17c-5.4-.1-9.9 4.1-10 9.5-.1 2.8 1.1 5.5 3.1 7.4l42.6 40.2c4 3.8 10.4 3.6 14.2-.4 3.8-4 3.6-10.4-.4-14.2l-25.1-23.8c6.8-1.4 12.9-4.8 17.8-9.7 4.3-4.2 7.4-9.4 9-15.2h8.4c5.5 0 10-4.5 10-10s-4.5-10-10-10h-8.4c-.6-1.7-1.3-3.4-2.2-5h10.5C610.3 163 614.7 158.5 614.7 153zM396 72c0-5.5-4.5-10-10-10h-39c-5.5 0-10 4.5-10 10v157c0 5.5 4.5 10 10 10h39c5.5 0 10-4.5 10-10V72zM376 220h-19V82h19V220zM475 49c0-5.5-4.5-10-10-10h-39c-5.5 0-10 4.5-10 10v181c0 5.5 4.5 10 10 10h39c5.5 0 10-4.5 10-10V49zM455 220h-19V59h19V220zM317 158c0-5.5-4.5-10-10-10h-39c-5.5 0-10 4.5-10 10v71c0 5.5 4.5 10 10 10h39c5.5 0 10-4.5 10-10V158zM297 220h-19v-52h19V220zM267 99.6l185-185 37.9 38.2c1.8 2 4.4 3.1 7.1 3.2l0 0c2.7-.1 5.2-1.3 7.1-3.2l115.4-115.5-.1 44.5c0 5.6 4.4 10.1 10 10.3h0c5.6-.1 10-4.7 10-10.3l.1-68.6c0-5.5-4.5-10.1-10-10.1h0l-68.4.1c-5.5-.1-10 4.4-10.1 9.9-.1 5.5 4.4 10 9.9 10.1.1 0 .1 0 .2 0h0l44.3-.1L496.9-68.8l-37.9-37.6c-1.9-1.8-4.5-2.7-7.1-2.6l0 0c-2.6-.1-5.2.8-7.1 2.6L252.8 85.6c-3.9 3.9-3.8 10.2.1 14.1C256.8 103.5 263.1 103.5 267 99.6z"></path>
</svg>
